<svg xmlns="http://www.w3.org/2000/svg" width="116.165" height="183.66" viewBox="0 0 116.165 183.66">
  <g id="Grupo_2" data-name="Grupo 2" transform="translate(-806.427 -230.406)">
    <path id="Icon_awesome-desktop" data-name="Icon awesome-desktop" d="M80.534,0H7.321A7.323,7.323,0,0,0,0,7.321V56.13a7.323,7.323,0,0,0,7.321,7.321H36.607l-2.44,7.321H23.184a3.661,3.661,0,1,0,0,7.321H64.671a3.661,3.661,0,0,0,0-7.321H53.69l-2.44-7.321H80.534a7.323,7.323,0,0,0,7.321-7.321V7.321A7.323,7.323,0,0,0,80.534,0Zm-2.44,53.69H9.762V9.762H78.094Z" transform="translate(810.724 230.406)" opacity="0.4"/>
    <path id="Icon_material-smartphone" data-name="Icon material-smartphone" d="M38.945,1.526,12.741,1.5A5.256,5.256,0,0,0,7.5,6.741V53.908a5.256,5.256,0,0,0,5.241,5.241h26.2a5.256,5.256,0,0,0,5.241-5.241V6.741a5.234,5.234,0,0,0-5.241-5.215Zm0,47.141h-26.2V11.982h26.2Z" transform="translate(878.407 311.047)" opacity="0.4"/>
    <path id="Icon_awesome-tablet" data-name="Icon awesome-tablet" d="M57.083,0H6.85A6.852,6.852,0,0,0,0,6.85V66.216a6.852,6.852,0,0,0,6.85,6.85H57.083a6.852,6.852,0,0,0,6.85-6.85V6.85A6.852,6.852,0,0,0,57.083,0ZM31.966,68.5a4.567,4.567,0,1,1,4.567-4.567A4.562,4.562,0,0,1,31.966,68.5Z" transform="translate(806.427 341)" opacity="0.4"/>
  </g>
</svg>
