<svg xmlns="http://www.w3.org/2000/svg" width="116.013" height="166.611" viewBox="0 0 116.013 166.611">
  <g id="Grupo_4" data-name="Grupo 4" transform="translate(-812.354 -500.434)">
    <path id="Icon_awesome-wordpress-simple" data-name="Icon awesome-wordpress-simple" d="M30.792.563A30.229,30.229,0,1,0,61.021,30.792,30.263,30.263,0,0,0,30.792.563ZM3.61,30.792A26.992,26.992,0,0,1,5.962,19.736L18.932,55.255A27.2,27.2,0,0,1,3.61,30.792ZM30.792,57.973a27.075,27.075,0,0,1-7.679-1.109l8.155-23.7,8.35,22.891a3.674,3.674,0,0,0,.2.378A27.212,27.212,0,0,1,30.792,57.973Zm3.742-39.919c1.633-.085,3.108-.256,3.108-.256a1.125,1.125,0,0,0-.171-2.243s-4.4.341-7.24.341c-2.669,0-7.155-.341-7.155-.341a1.125,1.125,0,0,0-.171,2.243s1.39.171,2.852.256l4.23,11.6L24.039,47.491l-9.9-29.437c1.633-.085,3.108-.256,3.108-.256a1.125,1.125,0,0,0-.171-2.243s-4.4.341-7.24.341c-.512,0-1.109-.012-1.755-.037A27.181,27.181,0,0,1,49.148,10.74a3.444,3.444,0,0,0-.353-.024,4.7,4.7,0,0,0-4.559,4.827c0,2.243,1.292,4.132,2.669,6.375a14.264,14.264,0,0,1,2.243,7.5c0,2.328-.89,5.022-2.072,8.788L44.37,47.259,34.534,18.054ZM44.456,54.28l8.3-24a25.709,25.709,0,0,0,2.072-9.739,20,20,0,0,0-.183-2.791A27.183,27.183,0,0,1,44.456,54.28Z" transform="matrix(0.966, -0.259, 0.259, 0.966, 846.288, 608.25)" opacity="0.3"/>
    <path id="Icon_metro-tools" data-name="Icon metro-tools" d="M98.538,20.446A23.69,23.69,0,0,1,64.96,50.164l-6.553,7.157,4.676,4.694,2.794-2.794a3.652,3.652,0,0,1,5.171,0l22.659,22.89a3.652,3.652,0,0,1,0,5.171L83.364,97.624a3.652,3.652,0,0,1-5.171,0L55.534,74.734a3.652,3.652,0,0,1,0-5.171l2.552-2.552-4.456-4.467L22.3,96.778a7.31,7.31,0,0,1-10.342,0L9.368,94.193a7.31,7.31,0,0,1,0-10.342l35.7-29.9L21.356,30.181l-7.488,0L5.2,16.243l6.974-6.985,14.25,8.721.093,7.332L50.5,49.389l6.978-5.842a23.714,23.714,0,0,1,28.094-36L70.213,22.7,83.144,35.627,98.538,20.446ZM17.944,87.5a3.658,3.658,0,1,0,0,5.175A3.658,3.658,0,0,0,17.944,87.5Z" transform="matrix(0.966, -0.259, 0.259, 0.966, 805.831, 520.82)" opacity="0.4"/>
  </g>
</svg>
