<svg xmlns="http://www.w3.org/2000/svg" width="131.688" height="100.188" viewBox="0 0 131.688 100.188">
  <path id="Icon_zocial-email" data-name="Icon zocial-email" d="M.072,77.586V11.212q0-.115.346-2.189L39.482,42.44.533,79.891a9.766,9.766,0,0,1-.461-2.3ZM5.257,4.414a4.966,4.966,0,0,1,1.959-.346H112.424a6.525,6.525,0,0,1,2.074.346L75.319,37.946l-5.185,4.148L59.878,50.507,49.622,42.095l-5.185-4.148Zm.115,79.971L44.667,46.7l15.211,12.33L75.088,46.7l39.294,37.681a5.533,5.533,0,0,1-1.959.346H7.216a5.219,5.219,0,0,1-1.844-.346Zm74.9-41.945L119.223,9.023a6.878,6.878,0,0,1,.346,2.189V77.586a8.832,8.832,0,0,1-.346,2.3Z" transform="matrix(0.985, -0.174, 0.174, 0.985, -0.777, 16.757)" opacity="0.4"/>
</svg>
